<svg width="17" height="12" viewBox="0 0 17 12" fill="none" xmlns="http://www.w3.org/2000/svg">
<path fill-rule="evenodd" clip-rule="evenodd" d="M8.49998 0C10.5724 0 12.5541 1.07297 14.4009 2.83586C15.0309 3.43729 15.6009 4.07937 16.1027 4.72172C16.4055 5.10933 16.6204 5.41425 16.7381 5.5959L17 6L16.7381 6.4041C16.6204 6.58575 16.4055 6.89067 16.1027 7.27828C15.6009 7.92063 15.0309 8.56271 14.4009 9.16414C12.5541 10.927 10.5724 12 8.49998 12C6.42758 12 4.4459 10.927 2.59911 9.16414C1.96906 8.56271 1.39906 7.92063 0.897289 7.27828C0.594504 6.89067 0.37953 6.58575 0.261829 6.4041L0 6L0.261829 5.5959C0.37953 5.41425 0.594504 5.10933 0.897289 4.72172C1.39906 4.07937 1.96906 3.43729 2.59911 2.83586C4.4459 1.07297 6.42758 0 8.49998 0ZM14.8993 5.63766C14.4399 5.04954 13.9175 4.46115 13.3445 3.91414C11.7539 2.39578 10.0994 1.5 8.49999 1.5C6.90054 1.5 5.24612 2.39578 3.6555 3.91414C3.08245 4.46115 2.56012 5.04954 2.10071 5.63766C2.00149 5.76468 1.9098 5.88587 1.82598 6C1.9098 6.11413 2.00149 6.23532 2.10071 6.36234C2.56012 6.95046 3.08245 7.53885 3.6555 8.08586C5.24612 9.60422 6.90054 10.5 8.49999 10.5C10.0994 10.5 11.7539 9.60422 13.3445 8.08586C13.9175 7.53885 14.4399 6.95046 14.8993 6.36234C14.9985 6.23532 15.0902 6.11413 15.174 6C15.0902 5.88587 14.9985 5.76468 14.8993 5.63766ZM5.46075 5.99999C5.46075 7.65685 6.82145 8.99999 8.49997 8.99999C10.1785 8.99999 11.5392 7.65685 11.5392 5.99999C11.5392 4.34314 10.1785 2.99999 8.49997 2.99999C6.82145 2.99999 5.46075 4.34314 5.46075 5.99999ZM10.0196 6.00002C10.0196 6.82844 9.33925 7.50002 8.49999 7.50002C7.66073 7.50002 6.98037 6.82844 6.98037 6.00002C6.98037 5.17159 7.66073 4.50002 8.49999 4.50002C9.33925 4.50002 10.0196 5.17159 10.0196 6.00002Z" fill="#979797"/>
</svg>
