<svg width="37" height="37" viewBox="0 0 37 37" fill="none" xmlns="http://www.w3.org/2000/svg">
<rect width="37" height="37" rx="18.5" fill="#2196F3"/>
<path d="M22.8182 15.75H25.3636C25.7151 15.75 26 15.4701 26 15.125V11.375C25.9999 11.0298 25.715 10.75 25.3636 10.75H22.8181C18.9522 10.75 15.8182 13.828 15.8182 17.625V20.75H12.6364C12.2849 20.75 12 21.0298 12 21.375V25.125C12 25.4702 12.2849 25.75 12.6364 25.75H15.8182V37H20.909V25.75H24.0909C24.3646 25.7498 24.6076 25.5776 24.6941 25.3225L25.9668 21.5725C26.0779 21.245 25.8976 20.8911 25.5642 20.782C25.4995 20.7609 25.4318 20.75 25.3636 20.75H20.909V17.625C20.9091 16.5895 21.7638 15.75 22.8182 15.75Z" fill="#FAFAFA"/>
</svg>
