<svg width="37" height="37" viewBox="0 0 37 37" fill="none" xmlns="http://www.w3.org/2000/svg">
<rect x="0.5" y="0.5" width="36" height="36" rx="18" fill="white" stroke="#E7E7E7"/>
<path d="M28.1696 16.0875L19.196 16.087C18.7997 16.087 18.4785 16.4082 18.4785 16.8044V19.6711C18.4785 20.0673 18.7997 20.3885 19.1959 20.3885H24.2493C23.696 21.8246 22.6632 23.0273 21.3455 23.7914L23.5003 27.5215C26.9568 25.5225 29.0003 22.015 29.0003 18.0885C29.0003 17.5295 28.9591 17.1298 28.8767 16.6798C28.814 16.3379 28.5172 16.0875 28.1696 16.0875Z" fill="#167EE6"/>
<path d="M18.0005 24.6958C15.5274 24.6958 13.3685 23.3446 12.209 21.3451L8.479 23.495C10.3772 26.7848 13.933 29.0002 18.0005 29.0002C19.9958 29.0002 21.8786 28.4629 23.5005 27.5267V27.5215L21.3457 23.7914C20.3601 24.3631 19.2195 24.6958 18.0005 24.6958Z" fill="#12B347"/>
<path d="M23.5 27.5266V27.5215L21.3453 23.7914C20.3596 24.363 19.2192 24.6958 18 24.6958V29.0001C19.9954 29.0001 21.8782 28.4629 23.5 27.5266Z" fill="#0F993E"/>
<path d="M11.3044 18.0002C11.3044 16.7812 11.637 15.6407 12.2086 14.6552L8.47861 12.5052C7.5372 14.122 7 15.9997 7 18.0002C7 20.0006 7.5372 21.8783 8.47861 23.4951L12.2086 21.3452C11.637 20.3596 11.3044 19.2192 11.3044 18.0002Z" fill="#FFD500"/>
<path d="M18.0005 11.3044C19.6131 11.3044 21.0944 11.8774 22.2515 12.8306C22.5369 13.0657 22.9518 13.0487 23.2133 12.7873L25.2444 10.7561C25.5411 10.4595 25.5199 9.97389 25.203 9.69897C23.2645 8.01721 20.7422 7 18.0005 7C13.933 7 10.3772 9.21535 8.479 12.5051L12.209 14.6551C13.3685 12.6556 15.5274 11.3044 18.0005 11.3044Z" fill="#FF4B26"/>
<path d="M22.251 12.8306C22.5365 13.0657 22.9514 13.0487 23.2128 12.7873L25.2439 10.7561C25.5406 10.4595 25.5194 9.97389 25.2026 9.69897C23.264 8.01716 20.7417 7 18 7V11.3044C19.6126 11.3044 21.094 11.8774 22.251 12.8306Z" fill="#D93F21"/>
</svg>
