<svg width="95" height="50" viewBox="0 0 95 50" fill="none" xmlns="http://www.w3.org/2000/svg">
<path fill-rule="evenodd" clip-rule="evenodd" d="M35.9442 14.8142C38.1237 14.8142 39.6553 13.6714 39.6553 11.6331V11.605C39.6553 9.81741 38.4991 9.07032 36.4492 8.52876C34.7025 8.07419 34.269 7.85331 34.269 7.18126V7.15056C34.269 6.6525 34.7175 6.25592 35.568 6.25592C36.2615 6.25592 36.9551 6.50581 37.691 6.94502C37.8637 7.04737 38.0373 7.10707 38.2541 7.10707C38.8313 7.10707 39.2931 6.6525 39.2931 6.06659C39.2931 5.62652 39.0489 5.3195 38.8031 5.17195C37.8936 4.5869 36.8255 4.26367 35.5971 4.26367C33.5331 4.26367 32.0596 5.49518 32.0596 7.3561V7.38509C32.0596 9.42255 33.3736 9.9931 35.4102 10.521C37.0996 10.9602 37.4459 11.2536 37.4459 11.8242V11.8549C37.4459 12.4544 36.8961 12.8203 35.9866 12.8203C35.0049 12.8203 34.1676 12.4706 33.4027 11.8975C33.2171 11.7625 32.9948 11.6908 32.7673 11.6928C32.1892 11.6928 31.7274 12.1474 31.7274 12.7333C31.7274 13.0847 31.901 13.4071 32.146 13.5827C33.2577 14.3864 34.5846 14.8166 35.9442 14.8142ZM57.2262 8.71895H56.6132C56.4906 8.71973 56.3691 8.69568 56.2556 8.64815C56.142 8.60063 56.0388 8.53057 55.9517 8.442C55.8646 8.35343 55.7953 8.24808 55.7479 8.13199C55.7005 8.01589 55.6759 7.89134 55.6755 7.76546C55.676 7.63966 55.7008 7.51522 55.7483 7.39926C55.7958 7.28331 55.8651 7.17813 55.9523 7.08977C56.0396 7.00141 56.1429 6.93161 56.2565 6.88438C56.37 6.83715 56.4915 6.81341 56.614 6.81454H57.2262V5.83206C57.2262 5.21716 57.7171 4.71824 58.3242 4.71824C58.9305 4.71824 59.4206 5.21716 59.4206 5.83206V6.81454H60.6639C60.7864 6.81341 60.908 6.83715 61.0215 6.88438C61.1351 6.93161 61.2384 7.00141 61.3256 7.08977C61.4128 7.17813 61.4822 7.28331 61.5297 7.39926C61.5772 7.51522 61.602 7.63966 61.6025 7.76546C61.6023 7.89148 61.5778 8.0162 61.5304 8.13245C61.4831 8.24871 61.4138 8.35418 61.3265 8.44281C61.2393 8.53144 61.1358 8.60147 61.0221 8.64886C60.9084 8.69625 60.7867 8.72007 60.6639 8.71895H59.4214V12.074C59.4214 12.5866 59.6382 12.8365 60.1282 12.8365C60.2005 12.8365 60.3458 12.8203 60.3882 12.8203C60.8807 12.8203 61.2977 13.2314 61.2977 13.7448C61.2977 14.1396 61.0394 14.4629 60.7354 14.5797C60.3317 14.7409 59.9546 14.798 59.4795 14.798C58.1365 14.798 57.2262 14.2582 57.2262 12.4399V8.71895ZM64.5187 17.0564C65.8326 17.0564 66.4821 16.4551 67.1325 14.8577L69.8319 8.27888C69.8767 8.17654 69.9332 7.92751 69.9332 7.75182C69.9332 7.16506 69.4573 6.72584 68.895 6.72584C68.3302 6.72584 68.0146 7.10707 67.8401 7.57528L66.2222 12.1329L64.5486 7.56163C64.3592 7.03287 64.0427 6.72584 63.4937 6.72584C62.8874 6.72584 62.4098 7.16506 62.4098 7.79446C62.4098 7.94115 62.468 8.16204 62.5261 8.30787L65.169 14.52L65.0967 14.6957C64.8949 15.0923 64.7064 15.1665 64.3168 15.1665C64.1574 15.1665 64.0427 15.1358 63.855 15.0778C63.7393 15.036 63.6172 15.0161 63.4946 15.0189C63.046 15.0189 62.6274 15.3857 62.6274 15.9272C62.6274 16.4696 63.0029 16.7332 63.321 16.85C63.6823 16.9822 64.0286 17.0564 64.5187 17.0564ZM51.3091 8.71895H50.6488C50.1289 8.71895 49.7103 8.29252 49.7103 7.76546C49.7108 7.63966 49.7355 7.51522 49.7831 7.39926C49.8306 7.28331 49.8999 7.17813 49.9871 7.08977C50.0743 7.00141 50.1777 6.93161 50.2912 6.88438C50.4048 6.83715 50.5263 6.81341 50.6488 6.81454H51.3091V5.83206C51.3091 5.21716 51.8008 4.71824 52.4072 4.71824C53.0135 4.71824 53.5044 5.21716 53.5044 5.83206V6.81454H54.472C54.9919 6.81454 55.4105 7.2384 55.4105 7.76546C55.4105 8.29338 54.9919 8.71895 54.472 8.71895H53.5052V12.074C53.5052 12.5866 53.7228 12.8365 54.2128 12.8365C54.2859 12.8365 54.4304 12.8203 54.4728 12.8203C54.9645 12.8203 55.384 13.2314 55.384 13.7448C55.384 14.1396 55.124 14.4629 54.8192 14.5797C54.4163 14.7409 54.0401 14.798 53.5633 14.798C52.2211 14.798 51.31 14.2582 51.31 12.4399V8.71895H51.3091ZM46.8689 7.83966C46.3489 7.20855 45.6271 6.667 44.4577 6.667C42.6238 6.667 40.9344 8.10319 40.9344 10.7257V10.7547C40.9344 13.3789 42.6537 14.8142 44.4577 14.8142C45.5989 14.8142 46.3348 14.2727 46.8689 13.5384V13.6424C46.8689 14.2582 47.3606 14.7554 47.9677 14.7554C48.574 14.7554 49.0641 14.2582 49.0641 13.6424V7.83966C49.0641 7.22391 48.574 6.72584 47.9677 6.72584C47.3614 6.72584 46.8689 7.22391 46.8689 7.82516V7.83966ZM45.0208 8.55691C46.0457 8.55691 46.8979 9.42255 46.8979 10.7257V10.7547C46.8979 12.0596 46.0457 12.9243 45.0208 12.9243C43.9959 12.9243 43.1296 12.0596 43.1296 10.7547V10.7257C43.1296 9.40634 43.9959 8.55691 45.0208 8.55691ZM82.4151 27.5302H87.3181C87.8048 27.5302 88.2068 27.1456 88.2068 26.662C88.2068 26.1776 87.8048 25.7802 87.3181 25.7802H84.1361L87.7192 21.8656C88.0631 21.4963 88.2068 21.226 88.2068 20.8132V20.7705C88.2068 20.2571 87.7624 19.9015 87.1461 19.9015H82.3728C81.8844 19.9015 81.4841 20.3006 81.4841 20.785C81.4841 21.2686 81.8844 21.6515 82.3728 21.6515H85.4111L81.842 25.5661C81.4982 25.9371 81.3545 26.2074 81.3545 26.6185V26.662C81.3545 27.1746 81.798 27.5302 82.4151 27.5302ZM75.1085 29.8491C76.4126 29.8491 77.0579 29.2666 77.7024 27.7153L80.3844 21.3257C80.4259 21.226 80.4841 20.9846 80.4841 20.814C80.4841 20.2435 80.0106 19.8162 79.4516 19.8162C78.8935 19.8162 78.577 20.1872 78.4051 20.6426L76.7996 25.0689L75.1368 20.6281C74.9507 20.1164 74.6343 19.8162 74.0903 19.8162C73.4881 19.8162 73.0155 20.2435 73.0155 20.855C73.0155 20.9982 73.0736 21.2106 73.1293 21.3539L75.7539 27.3869L75.6816 27.5575C75.4806 27.943 75.2946 28.0138 74.9067 28.0138C74.7506 28.0138 74.6343 27.9848 74.4482 27.9285C74.3329 27.8891 74.2118 27.8701 74.0903 27.8722C73.6459 27.8722 73.2298 28.2278 73.2298 28.754C73.2298 29.2802 73.6035 29.537 73.9183 29.6495C74.2755 29.7792 74.6202 29.8491 75.1085 29.8491ZM71.645 18.1378C71.645 17.5399 71.1583 17.0564 70.5561 17.0564C69.9531 17.0564 69.4656 17.5399 69.4656 18.1378V20.8985C68.9506 20.287 68.233 19.7599 67.0719 19.7599C65.2504 19.7599 63.5735 21.1552 63.5735 23.7018V23.7299C63.5735 26.2782 65.2803 27.6718 67.0719 27.6718C68.2048 27.6718 68.9348 27.1456 69.4656 26.4334V26.5332C69.4656 27.1311 69.9531 27.6163 70.5561 27.6163C71.1583 27.6163 71.6442 27.1311 71.6442 26.5332V18.1378H71.645ZM67.6317 21.5961C68.6483 21.5961 69.4955 22.4361 69.4955 23.7026V23.7299C69.4955 24.9972 68.6483 25.8365 67.6317 25.8365C66.6134 25.8365 65.7529 24.9972 65.7529 23.7299V23.7018C65.7529 22.4208 66.6134 21.5952 67.6317 21.5952V21.5961ZM59.7661 26.5341C59.7661 27.1311 60.2528 27.6155 60.855 27.6155C61.4571 27.6155 61.9455 27.1311 61.9455 26.5332V18.1378C61.9455 17.5399 61.4571 17.0564 60.855 17.0564C60.2528 17.0564 59.7669 17.5399 59.7669 18.1378V26.5332L59.7661 26.5341ZM57.7926 20.8985C57.7926 20.3015 57.3059 19.8162 56.7037 19.8162C56.1016 19.8162 55.6149 20.3006 55.6149 20.8993V24.1572C55.6149 25.1823 55.0841 25.7085 54.2527 25.7085C53.4213 25.7085 52.9329 25.1823 52.9329 24.1563V20.8985C52.9329 20.3015 52.4462 19.8162 51.8449 19.8162C51.2419 19.8162 50.7535 20.3006 50.7535 20.8993V24.8403C50.7535 26.5904 51.7145 27.6718 53.3631 27.6718C54.4678 27.6718 55.1124 27.0893 55.614 26.4479V26.5332C55.614 27.1311 56.1016 27.6163 56.7037 27.6163C57.3059 27.6163 57.7926 27.1311 57.7926 26.5332V20.8985ZM41.9568 26.5332C41.9568 27.1311 42.4452 27.6163 43.0465 27.6163C43.6487 27.6163 44.1362 27.1311 44.1362 26.5332V23.2753C44.1362 22.2494 44.667 21.7232 45.4984 21.7232C46.3298 21.7232 46.8165 22.2494 46.8165 23.2753V26.5332C46.8165 27.1311 47.3049 27.6163 47.9071 27.6163C48.5092 27.6163 48.996 27.1311 48.996 26.5332V22.5914C48.996 20.8413 48.0358 19.7599 46.3863 19.7599C45.2833 19.7599 44.6387 20.3441 44.1362 20.9837V18.1378C44.1362 17.5399 43.6487 17.0564 43.0465 17.0564C42.4452 17.0564 41.9568 17.5399 41.9568 18.1378V26.5332ZM32.7017 27.5302H39.2815C39.8131 27.5302 40.2574 27.1038 40.2574 26.5767C40.2574 26.0505 39.8131 25.6096 39.2815 25.6096H34.651L39.8546 19.6038C40.1121 19.29 40.2566 18.9634 40.2566 18.5787V18.5361C40.2566 18.0099 39.8123 17.5689 39.2807 17.5689H32.8736C32.3429 17.5689 31.8977 18.0099 31.8977 18.5361C31.8977 19.0631 32.3429 19.4896 32.8736 19.4896H37.3313L32.1269 25.4953C31.8694 25.7938 31.7266 26.1349 31.7266 26.5187V26.5631C31.7266 27.0893 32.1709 27.5302 32.7008 27.5302H32.7017Z" fill="white"/>
<path fill-rule="evenodd" clip-rule="evenodd" d="M9.96823 18.3278L3.18074 19.6557C2.8809 19.7137 2.5578 19.8075 2.25215 19.7725C2.11254 19.7559 1.97601 19.7185 1.84683 19.6617C1.67781 19.5891 1.52458 19.4827 1.39608 19.3486C1.26758 19.2145 1.16638 19.0555 1.09841 18.8808C1.03044 18.7061 0.997055 18.5193 1.0002 18.3312C1.00335 18.1431 1.04297 17.9576 1.11675 17.7854C1.25712 17.4588 1.63752 17.069 1.86925 16.7901L6.12514 11.6918L2.59767 5.25621C2.54994 5.17213 2.50641 5.08559 2.46727 4.99695C2.38962 4.81775 2.3495 4.62381 2.3495 4.42767C2.3495 4.23154 2.38962 4.03759 2.46727 3.8584C2.59793 3.56139 2.82176 3.31793 3.10301 3.16689C3.38426 3.01584 3.70669 2.96595 4.01879 3.02517C4.22644 3.06354 4.52545 3.20597 4.75552 3.29978L11.1809 5.93593L16.225 0.480269C16.2516 0.451272 16.2798 0.425687 16.308 0.397543C16.511 0.201964 16.7651 0.0714735 17.0392 0.0220848C17.3134 -0.027304 17.5956 0.00655772 17.8513 0.119514C18.3911 0.356606 18.7076 0.893047 18.6984 1.44996C18.6976 1.49089 18.6976 1.52927 18.6951 1.56935L18.1636 9.01301L24.4477 11.9767C24.6736 12.0816 24.9801 12.2086 25.1487 12.3366C25.3541 12.4893 25.5143 12.6973 25.6119 12.9377C25.7094 13.178 25.7404 13.4413 25.7015 13.6986C25.6626 13.9559 25.5553 14.1971 25.3913 14.3957C25.2274 14.5944 25.0133 14.7427 24.7725 14.8243C24.6786 14.8584 24.5922 14.8797 24.4959 14.9045L17.4335 16.6682C20.4319 33.2424 34.8059 45.8065 52.0877 45.8065C62.6577 45.8065 72.1404 41.1057 78.5973 33.662C78.7967 33.4266 79.0907 33.2782 79.4204 33.2782C80.3075 33.2782 80.7867 34.2505 80.3033 34.9933C80.158 35.2159 79.9611 35.4709 79.7394 35.7353C78.7261 36.9446 77.4686 38.2094 76.3124 39.2857C69.1636 45.9362 59.6178 50 49.1325 50C29.9794 50 13.9633 36.4508 9.96823 18.327V18.3278Z" fill="#FECC00"/>
<path fill-rule="evenodd" clip-rule="evenodd" d="M92.5081 18.7519C91.8187 18.7519 91.1484 19.3182 91.1484 20.148C91.1484 20.9761 91.8187 21.5441 92.5081 21.5441C93.2016 21.5441 93.8677 20.9761 93.8677 20.148C93.8677 19.3182 93.2016 18.7519 92.5081 18.7519ZM92.5081 19.0052C93.0662 19.0052 93.6011 19.4666 93.6011 20.148C93.6011 20.8277 93.0662 21.2891 92.5081 21.2891C92.3636 21.288 92.2206 21.2576 92.0876 21.1995C91.9546 21.1415 91.834 21.057 91.7329 20.951C91.6318 20.8449 91.5521 20.7194 91.4984 20.5816C91.4447 20.4438 91.4181 20.2964 91.42 20.148C91.42 19.4666 91.9499 19.0052 92.5081 19.0052ZM92.5006 19.3804H92.0048V20.8832H92.1867V20.3152H92.4649L92.876 20.8832H93.082L92.6601 20.3083C92.9101 20.2529 93.0546 20.0764 93.0546 19.8538C93.0546 19.58 92.8412 19.3804 92.5006 19.3804ZM92.5081 19.557C92.7332 19.557 92.8644 19.6704 92.8644 19.8538C92.8644 20.0414 92.7332 20.1437 92.5073 20.1437H92.1867V19.557H92.5081Z" fill="white"/>
</svg>
