<svg width="37" height="37" viewBox="0 0 37 37" fill="none" xmlns="http://www.w3.org/2000/svg">
<rect x="0.5" y="0.5" width="36" height="36" rx="18" fill="white" stroke="#E7E7E7"/>
<path d="M22.3089 19C22.308 19.8773 21.9591 20.7184 21.3388 21.3388C20.7184 21.9591 19.8773 22.308 19 22.3089C18.1227 22.308 17.2816 21.9591 16.6612 21.3388C16.0409 20.7184 15.692 19.8773 15.6911 19C15.692 18.1227 16.0409 17.2816 16.6612 16.6612C17.2816 16.0409 18.1227 15.692 19 15.6911C19.8773 15.692 20.7184 16.0409 21.3388 16.6612C21.9591 17.2816 22.308 18.1227 22.3089 19ZM19 8C12.9349 8 8 12.9349 8 19C8 25.0651 12.9349 30 19 30C21.222 30 23.3649 29.3386 25.1964 28.0867L25.2281 28.0647L23.7458 26.3418L23.7211 26.3583C22.3133 27.2646 20.6742 27.746 19 27.745C14.1779 27.745 10.255 23.8221 10.255 19C10.255 14.1779 14.1779 10.255 19 10.255C23.8221 10.255 27.745 14.1779 27.745 19C27.745 19.6249 27.6756 20.2574 27.5387 20.8796C27.2624 22.0147 26.4676 22.3626 25.8709 22.3165C25.2707 22.2677 24.5688 21.8401 24.5639 20.7937V19C24.5639 15.9317 22.0683 13.4361 19 13.4361C15.9317 13.4361 13.4361 15.9317 13.4361 19C13.4361 22.0683 15.9317 24.5639 19 24.5639C19.7332 24.5657 20.4595 24.4213 21.1363 24.1393C21.8132 23.8573 22.427 23.4433 22.9421 22.9215C23.2409 23.3901 23.6449 23.7825 24.1219 24.0676C24.5989 24.3528 25.1359 24.5227 25.6901 24.5639C26.5952 24.6345 27.4948 24.3708 28.2187 23.8228C28.878 23.3223 29.3702 22.5984 29.6425 21.7287C29.6858 21.5884 29.7656 21.2667 29.7663 21.2646L29.7683 21.2529C29.9285 20.5551 30 19.8594 30 19C30 12.9349 25.0651 8 19 8Z" fill="#FF9E00"/>
</svg>
