<svg width="37" height="37" viewBox="0 0 37 37" fill="none" xmlns="http://www.w3.org/2000/svg">
<rect width="37" height="37" rx="18.5" fill="#E27E35"/>
<path d="M20.9374 22.5334C21.9967 22.2938 23.0166 21.8772 23.9553 21.2912C24.6658 20.8459 24.8808 19.9137 24.4324 19.2054C23.9841 18.4971 23.0455 18.2835 22.3323 18.7288C20.2033 20.0595 17.4634 20.0569 15.3344 18.7288C14.6212 18.2835 13.6826 18.4971 13.2342 19.2054C12.7859 19.9111 13.0009 20.8459 13.7114 21.2912C14.65 21.8772 15.67 22.2938 16.7292 22.5334L13.8268 25.4187C13.2316 26.0098 13.2316 26.9655 13.8268 27.5567C14.1257 27.8509 14.5137 27.9993 14.9018 27.9993C15.2924 27.9993 15.6805 27.8509 15.9794 27.5567L18.8346 24.7208L21.6899 27.5567C22.2851 28.1478 23.2473 28.1478 23.8425 27.5567C24.4377 26.9655 24.4377 26.0072 23.8425 25.4187L20.9374 22.5334ZM18.8346 11.0259C20.0224 11.0259 20.9873 11.9842 20.9873 13.1639C20.9873 14.3409 20.0224 15.2992 18.8346 15.2992C17.6496 15.2992 16.682 14.3409 16.682 13.1639C16.682 11.9842 17.6496 11.0259 18.8346 11.0259ZM18.8346 18.3226C21.7004 18.3226 24.0313 16.0076 24.0313 13.1639C24.0313 10.315 21.7004 8 18.8346 8C15.9689 8 13.638 10.315 13.638 13.1613C13.638 16.0076 15.9689 18.3226 18.8346 18.3226Z" fill="white"/>
</svg>
