<svg width="37" height="37" viewBox="0 0 37 37" fill="none" xmlns="http://www.w3.org/2000/svg">
<rect width="37" height="37" rx="18.5" fill="#4D76A1"/>
<path fill-rule="evenodd" clip-rule="evenodd" d="M17.7852 24.456H18.9807C18.9807 24.456 19.3418 24.4196 19.5262 24.2367C19.6959 24.0687 19.6904 23.7534 19.6904 23.7534C19.6904 23.7534 19.6671 22.2772 20.4116 22.0598C21.1455 21.8457 22.0879 23.4866 23.0868 24.1175C23.8421 24.595 24.4161 24.4903 24.4161 24.4903L27.087 24.456C27.087 24.456 28.4842 24.3768 27.8217 23.3659C27.7674 23.2832 27.4359 22.618 25.8359 21.2513C24.1612 19.8208 24.3854 20.0521 26.4028 17.5777C27.6314 16.0708 28.1226 15.1508 27.9692 14.7567C27.8228 14.3814 26.9192 14.4806 26.9192 14.4806L23.9119 14.4979C23.9119 14.4979 23.689 14.4699 23.5237 14.5608C23.3621 14.65 23.2581 14.8579 23.2581 14.8579C23.2581 14.8579 22.7822 16.0241 22.1474 17.0158C20.8082 19.1084 20.2728 19.2188 20.054 19.0889C19.5449 18.7861 19.672 17.8723 19.672 17.2232C19.672 15.1952 20.0062 14.3497 19.0211 14.1308C18.6942 14.0581 18.4537 14.0101 17.6177 14.0024C16.5447 13.9921 15.6365 14.0054 15.1222 14.2373C14.7801 14.3914 14.5162 14.735 14.6769 14.7547C14.8757 14.7792 15.3258 14.8664 15.5645 15.1655C15.8727 15.5513 15.8618 16.4178 15.8618 16.4178C15.8618 16.4178 16.0388 18.8051 15.4483 19.1017C15.0429 19.305 14.4869 18.8898 13.293 16.9913C12.6813 16.0188 12.2195 14.9439 12.2195 14.9439C12.2195 14.9439 12.1304 14.743 11.9716 14.6355C11.7788 14.5054 11.5094 14.4639 11.5094 14.4639L8.65176 14.4811C8.65176 14.4811 8.22277 14.4921 8.06529 14.6638C7.92519 14.8165 8.05416 15.1323 8.05416 15.1323C8.05416 15.1323 10.2914 19.9492 12.8247 22.3767C15.1475 24.6022 17.7852 24.456 17.7852 24.456Z" fill="white"/>
</svg>
