<svg width="20" height="25" viewBox="0 0 20 25" fill="none" xmlns="http://www.w3.org/2000/svg">
<path d="M4.70711 13.1925C4.31658 12.8019 4.31658 12.1688 4.70711 11.7782L11.7782 4.70718C12.1687 4.31665 12.8019 4.31665 13.1924 4.70718C13.5829 5.0977 13.5829 5.73087 13.1924 6.12139L6.12132 13.1925C5.7308 13.583 5.09763 13.583 4.70711 13.1925Z" fill="white"/>
<path d="M4.70711 11.7782C5.09763 11.3877 5.7308 11.3877 6.12132 11.7782L13.1924 18.8493C13.5829 19.2398 13.5829 19.873 13.1924 20.2635C12.8019 20.6541 12.1687 20.6541 11.7782 20.2635L4.70711 13.1925C4.31658 12.8019 4.31658 12.1688 4.70711 11.7782Z" fill="white"/>
</svg>